# xmcd
#
# Track frame offsets: 
#        150
#        23782
#        43546
#        67158
#        85108
#        106353
#        125688
#        144281
#        163653
#        179681
#        208975
#        245821
#        271021
#
# Disc length: 3926 seconds
#
# Revision: 0
# Processed by: cddbd v1.5.2PL0 Copyright (c) Steve Scherf et al.
# Submitted via: ExactAudioCopy v0.99pb4
#
DISCID=c00f540d
DTITLE=Rick Derringer,Tim Bogert,Carmine Appice - The Sky Is Falling
DYEAR=2009
DGENRE=Blues/Rock
TTITLE0=Blood from a Stone 
TTITLE1=The Sky Is Falling 
TTITLE2=Grey Day 
TTITLE3=Everybody's Comin' 
TTITLE4=Bye Bye Baby 
TTITLE5=Telling Me Lies 
TTITLE6=Dawn of Love 
TTITLE7=Turn on the Light 
TTITLE8=Boys Night Out 
TTITLE9=Alone Now 
TTITLE10=Rhapsody in Red 
TTITLE11=Hang on Sloopy 
TTITLE12=Rock 'N' Roll Hoochie Coo 
EXTD=
EXTT0=
EXTT1=
EXTT2=
EXTT3=
EXTT4=
EXTT5=
EXTT6=
EXTT7=
EXTT8=
EXTT9=
EXTT10=
EXTT11=
EXTT12=
PLAYORDER=
